<?xml version="1.0" standalone="no"?>
<!DOCTYPE svg PUBLIC "-//W3C//DTD SVG 20010904//EN"
 "http://www.w3.org/TR/2001/REC-SVG-20010904/DTD/svg10.dtd">
<svg version="1.0" xmlns="http://www.w3.org/2000/svg"
 width="16.000000pt" height="16.000000pt" viewBox="0 0 16.000000 16.000000"
 preserveAspectRatio="xMidYMid meet">
<metadata>
Created by potrace 1.11, written by Peter Selinger 2001-2013
</metadata>
<g transform="translate(0.000000,16.000000) scale(0.002653,-0.002653)"
fill="#000000" stroke="none">
<path d="M10 3021 l0 -3008 52 -7 c70 -8 1770 -8 2361 1 l467 6 0 249 0 248
155 0 155 0 0 310 0 309 153 3 152 3 0 510 0 510 -112 3 -113 3 0 94 0 95
-140 0 -140 0 0 805 0 805 100 0 100 0 0 300 0 300 155 0 155 0 0 175 0 175
325 0 325 0 0 165 0 165 300 0 300 0 2 -162 3 -163 313 -3 312 -2 0 -175 0
-175 153 0 154 0 6 -212 c4 -116 7 -251 7 -300 l0 -88 155 0 155 0 0 -805 0
-805 -140 0 -140 0 0 -140 0 -140 -175 0 -175 0 0 -150 0 -150 -150 0 -149 0
-4 153 -3 152 -2 -162 -2 -163 168 -2 167 -3 3 -843 2 -842 -170 0 -170 0 0
-25 0 -25 475 0 475 0 0 3010 0 3010 -3010 0 -3010 0 0 -3009z m2250 934 l0
-315 160 0 160 0 0 -155 0 -155 -155 0 -155 0 0 -475 0 -475 -310 0 -310 0 0
-155 0 -155 90 0 90 0 0 -165 0 -165 -65 0 -65 0 0 -160 0 -160 -75 0 -75 0 0
-400 0 -400 -205 0 -205 0 -2 398 -3 397 -92 3 -93 3 0 159 0 160 -70 0 -70 0
0 165 0 165 105 0 105 0 0 155 0 155 -330 0 -330 0 0 475 0 475 -140 0 -140 0
0 155 0 155 145 0 145 0 0 315 0 315 945 0 945 0 0 -315z"/>
<path d="M700 3800 l0 -160 165 0 165 0 0 160 0 160 -165 0 -165 0 0 -160z"/>
<path d="M1640 3805 l0 -155 160 0 160 0 0 155 0 155 -160 0 -160 0 0 -155z"/>
<path d="M3830 3800 l0 -160 165 0 165 0 0 160 0 160 -165 0 -165 0 0 -160z"/>
<path d="M4770 3805 l0 -155 160 0 160 0 0 155 0 155 -160 0 -160 0 0 -155z"/>
<path d="M3510 815 l0 -315 -155 0 -155 0 0 -245 0 -245 320 0 320 0 0 560 0
560 -165 0 -165 0 0 -315z"/>
</g>
</svg>
